<svg xmlns="http://www.w3.org/2000/svg" viewBox="0 0 1600 800">
  <defs>
    <linearGradient id="bg" x1="0" x2="1" y1="0" y2="1">
      <stop offset="0%" stop-color="#2d0d1d"/>
      <stop offset="45%" stop-color="#7a1736"/>
      <stop offset="100%" stop-color="#d4a93a"/>
    </linearGradient>
    <linearGradient id="saree" x1="0" x2="1" y1="0" y2="1">
      <stop offset="0%" stop-color="#f4d1de"/>
      <stop offset="100%" stop-color="#ffd36f"/>
    </linearGradient>
  </defs>
  <rect width="1600" height="800" fill="url(#bg)"/>
  <circle cx="1180" cy="180" r="110" fill="#fff6cf" opacity="0.18"/>
  <circle cx="1390" cy="610" r="170" fill="#ffffff" opacity="0.08"/>
  <path d="M1150 170c-95 44-172 138-214 261-22 63-56 122-99 177 184 14 335-15 459-98 53-35 113-104 140-160-36-84-124-163-286-180z" fill="url(#saree)" opacity="0.92"/>
  <path d="M1098 171c76 5 132 31 177 74-73 17-141 48-196 97 14-65 27-121 19-171z" fill="#7a1736" opacity="0.5"/>
  <text x="120" y="180" font-size="82" font-family="Georgia, serif" fill="#fff8ea">Sri Padma Textiles</text>
  <text x="120" y="255" font-size="34" font-family="Arial, sans-serif" fill="#ffe8a3">Handcrafted elegance for weddings, festivals, and everyday grace</text>
</svg>
