<svg xmlns="http://www.w3.org/2000/svg" viewBox="0 0 240 240">
  <defs>
    <linearGradient id="g" x1="0" x2="1" y1="0" y2="1">
      <stop offset="0%" stop-color="#8B6510"/>
      <stop offset="50%" stop-color="#D4A93A"/>
      <stop offset="100%" stop-color="#B8892A"/>
    </linearGradient>
  </defs>
  <rect width="240" height="240" rx="44" fill="#fff8ea"/>
  <circle cx="120" cy="120" r="92" fill="url(#g)" opacity="0.15"/>
  <path d="M71 153c32-6 57-25 82-59 7-9 17-11 23-5-10 24-22 45-44 67-21 20-39 27-61 27-16 0-28-3-40-11 12-8 23-14 40-19z" fill="url(#g)"/>
  <path d="M84 77c16 3 31 10 43 22-3 10-8 19-14 26C101 112 91 95 84 77z" fill="#8B6510" opacity="0.9"/>
  <text x="120" y="214" text-anchor="middle" font-size="24" font-family="Georgia, serif" fill="#6a4b1f">SP</text>
</svg>
